<?xml version="1.0" encoding="utf-8"?>
<!-- Generator: Adobe Illustrator 25.4.1, SVG Export Plug-In . SVG Version: 6.00 Build 0)  -->
<svg version="1.1" id="Layer_1" xmlns="http://www.w3.org/2000/svg" xmlns:xlink="http://www.w3.org/1999/xlink" x="0px" y="0px"
	 viewBox="0 0 467.9 521.4" style="enable-background:new 0 0 467.9 521.4;" xml:space="preserve">
<style type="text/css">
	.st0{fill:#F5900D;}
	.st1{fill:#050505;}

	.st1{ animation: colorchange1 1.5s infinite; }
	@keyframes colorchange1 {
	  0% {
	   fill: #fff;
	  }
	  50%{
	  	fill: #F5900D;	
	  }
	  100% {
	    fill: #fff;
	  }
	}

	.std3, .std4{ animation: MoveUpDown 1.5s infinite;}
	@keyframes MoveUpDown{
		0%{
			transform: translateY(-20px);
			fill: #F5900D;
		} 
		50%{
			transform: translateY(20px);
			fill: #fff;
		} 
		100%{
			transform: translateY(-20px);
			fill: #F5900D;
		}
	}
</style>
<g>
	<g>
		<g>
			<g>
				<path class="st0" d="M235.2,41.8c9.7,2,46,9.9,111.6,26.9c49.1,12.7,77.2,20.3,90.5,24c-0.2,24.2-3.4,94.1-29.6,202
					c-24.9,102.3-115,160.9-172.4,196.5C177.8,455.5,87.6,397,62.8,294.7c-26.1-107.6-29.4-177.8-29.6-202
					c13.3-3.7,41.4-11.4,90.5-24C189.3,51.7,225.6,43.8,235.2,41.8 M235.2,28.1c0,0-36.3,7.3-115,27.6
					C45.9,74.8,19.9,82.5,19.9,82.5S16,159.1,49.8,297.8c27.2,112,128.7,174,185.5,209.1c56.7-35.1,158.2-97.1,185.5-209.1
					c33.7-138.7,29.9-215.3,29.9-215.3s-26.1-7.7-100.4-26.8C271.5,35.4,235.2,28.1,235.2,28.1L235.2,28.1z"/>
				<path class="st1" d="M228.7,469.3c0,0-73.7-48-100.1-81.1s-50-76.4-45.3-75.7c0,0-10.8-36.5-14.2-57.5c0,0-21.6-98.4-19.2-149.9
					l182.8-48.2l191.2,45.7l-6.6,65.2l-8.1,55.4l-8.1,40.6l-6.2,27.8l-6.7,19.5l-3.4,9.5l-4.1,9.5l-7.4,14.9l-9.5,16.9L351.7,376
					l-13.5,16.2L328.1,403l-20.3,19.6l-21,15.5l-18.9,13.5L244.2,468l-4.7,2.7l-4.3,1.1l-2.5,0.9L228.7,469.3z"/>
				<path class="st0" d="M235.2,58.6c13,2.8,48.2,10.7,107.5,26c37.6,9.7,62.8,16.4,77.8,20.5c-1.3,31.2-6.7,94.8-28.8,185.7
					c-20.8,85.5-90.5,139.5-156.5,181c-66-41.5-135.7-95.4-156.5-181c-22.1-90.9-27.6-154.5-28.8-185.7c15-4.1,40.1-10.8,77.8-20.5
					C187,69.3,222.2,61.4,235.2,58.6 M235.2,55.2c-12.6,2.7-48,10.6-108.3,26.2c-39.1,10.1-64.9,17-80.4,21.2c1,30,6.1,94.9,29,189
					c22.7,93.2,104,149.2,159.7,184.1c55.7-34.9,137-90.9,159.7-184.1c22.9-94.1,28-159.1,29-189c-15.5-4.2-41.2-11.1-80.4-21.2
					C283.2,65.8,247.8,57.9,235.2,55.2L235.2,55.2z"/>
			</g>
			<g>
				<g>
					<path class="st0 std3" d="M271.8,159c-2.5,1-4.1,2.7-5.1,5.3c-0.9,2.6-1.4,6.7-1.4,12.3v82.6c0,12.8-0.2,24.1-0.8,34
						c-0.5,9.9-1.5,18.2-3.2,24.9c-1.7,7.1-4.7,13.4-8.9,18.9c-4.3,5.6-9.7,9.9-16.2,13.1c-6.6,3.2-14,4.8-22.4,4.8
						c-7.4,0-13.7-1.4-18.9-4.1c-7.2-3.8-10.8-8.9-10.8-15.5c0-3.5,1.1-6.4,3.4-8.6c2.3-2.3,5.1-3.4,8.6-3.4c3.6,0,6.6,1.1,8.9,3.3
						s3.5,5.2,3.5,8.9c0,3.2-0.8,5.7-2.6,7.7c-1.7,2-4,3.2-6.9,3.8c1.4,1.4,3.4,2.3,6.2,2.8c2.9,0.5,5.6,0.8,8.2,0.8
						c6.5,0,12.2-1.7,16.9-5.1c4.7-3.4,8.1-8.1,10.2-14.1c1.5-4.7,2.6-10.6,3.1-17.6s0.8-18.4,0.8-34.1v-103c0-5.6-0.5-9.8-1.4-12.3
						c-0.9-2.6-2.6-4.4-5.1-5.3c-2.5-0.9-6.4-1.6-11.9-1.7v-4.5c6.2,0.5,15.9,0.7,28.8,0.7c12,0,21.6-0.2,28.6-0.7v4.5
						C278.1,157.4,274.1,158,271.8,159z"/>
					<path class="st0 std4" d="M282.8,153.6v2.9c-5.2,0.2-8.9,0.8-11.3,1.8c-2.7,1.1-4.6,3-5.6,5.8c-1,2.7-1.4,6.8-1.4,12.6v82.6
						c0,12.7-0.2,24.1-0.8,34c-0.5,9.8-1.5,18.1-3.2,24.7c-1.7,6.9-4.6,13.1-8.8,18.6c-4.1,5.4-9.5,9.8-15.9,12.8
						c-6.5,3.2-13.8,4.7-22.1,4.7c-7.1,0-13.4-1.4-18.6-4c-7-3.6-10.4-8.5-10.4-14.8c0-3.3,1.1-5.9,3.1-8s4.7-3.2,8-3.2
						c3.4,0,6.2,1.1,8.3,3.1c2.2,2,3.2,4.8,3.2,8.3c0,2.9-0.8,5.3-2.3,7.1c-1.6,1.8-3.8,3-6.5,3.5l-1.5,0.3l1.1,1.1
						c1.4,1.4,3.7,2.5,6.7,3.1c2.9,0.5,5.7,0.8,8.3,0.8c6.7,0,12.5-1.7,17.4-5.2s8.4-8.3,10.5-14.5c1.6-4.7,2.6-10.7,3.2-17.8
						c0.5-7,0.8-18.5,0.8-34.2v-103c0-5.8-0.5-9.9-1.4-12.6c-1-2.8-2.9-4.7-5.6-5.8c-2.5-1-6.2-1.5-11.3-1.8v-2.9
						c6.2,0.4,15.7,0.6,28,0.6C266.4,154.2,275.8,154.1,282.8,153.6 M283.5,152.7c-7.1,0.5-16.6,0.7-28.6,0.7
						c-13,0-22.6-0.2-28.8-0.7v4.5c5.4,0.2,9.4,0.8,11.9,1.7c2.5,1,4.1,2.7,5.1,5.3c0.9,2.6,1.4,6.7,1.4,12.3v103.1
						c0,15.7-0.2,27.1-0.8,34.1c-0.5,7-1.5,12.8-3.1,17.6c-2,6-5.5,10.7-10.2,14.1c-4.7,3.4-10.4,5.1-16.9,5.1
						c-2.6,0-5.4-0.3-8.2-0.8c-2.9-0.5-4.9-1.5-6.2-2.8c2.9-0.6,5.3-1.9,6.9-3.8c1.7-2,2.6-4.5,2.6-7.7c0-3.8-1.2-6.7-3.5-8.9
						c-2.3-2.3-5.3-3.3-8.9-3.3c-3.5,0-6.3,1.1-8.6,3.4c-2.3,2.3-3.4,5.1-3.4,8.6c0,6.6,3.6,11.8,10.8,15.5
						c5.3,2.7,11.6,4.1,18.9,4.1c8.4,0,15.9-1.6,22.4-4.8c6.5-3.2,12-7.6,16.2-13.1c4.3-5.6,7.2-11.9,8.9-18.9
						c1.7-6.7,2.6-14.9,3.2-24.9c0.5-9.9,0.8-21.2,0.8-34v-82.6c0-5.6,0.5-9.8,1.4-12.3c0.9-2.6,2.6-4.4,5.1-5.3
						c2.5-1,6.4-1.6,11.9-1.7L283.5,152.7L283.5,152.7z"/>
				</g>
			</g>
		</g>
	</g>
</g>
</svg>
